<mxfile host="app.diagrams.net" agent="Mozilla/5.0 (Macintosh; Intel Mac OS X 10_15_7) AppleWebKit/537.36 (KHTML, like Gecko) Chrome/133.0.0.0 Safari/537.36" version="26.0.14">
  <diagram id="C5RBs43oDa-KdzZeNtuy" name="Page-1">
    <mxGraphModel dx="1092" dy="-417" grid="1" gridSize="10" guides="1" tooltips="1" connect="1" arrows="1" fold="1" page="1" pageScale="1" pageWidth="827" pageHeight="1169" math="0" shadow="0">
      <root>
        <mxCell id="WIyWlLk6GJQsqaUBKTNV-0" />
        <mxCell id="WIyWlLk6GJQsqaUBKTNV-1" parent="WIyWlLk6GJQsqaUBKTNV-0" />
        <mxCell id="9mr5yLSks6lPNNkDvnGB-1" value="Étage" style="swimlane;fontStyle=0;childLayout=stackLayout;horizontal=1;startSize=30;horizontalStack=0;resizeParent=1;resizeParentMax=0;resizeLast=0;collapsible=1;marginBottom=0;whiteSpace=wrap;html=1;" vertex="1" parent="WIyWlLk6GJQsqaUBKTNV-1">
          <mxGeometry x="100" y="1325" width="140" height="90" as="geometry" />
        </mxCell>
        <mxCell id="9mr5yLSks6lPNNkDvnGB-2" value="&lt;b&gt;&lt;u&gt;numéro&lt;/u&gt;&lt;/b&gt;" style="text;strokeColor=none;fillColor=none;align=left;verticalAlign=middle;spacingLeft=4;spacingRight=4;overflow=hidden;points=[[0,0.5],[1,0.5]];portConstraint=eastwest;rotatable=0;whiteSpace=wrap;html=1;" vertex="1" parent="9mr5yLSks6lPNNkDvnGB-1">
          <mxGeometry y="30" width="140" height="30" as="geometry" />
        </mxCell>
        <mxCell id="9mr5yLSks6lPNNkDvnGB-40" value="coordonnées" style="text;strokeColor=none;fillColor=none;align=left;verticalAlign=middle;spacingLeft=4;spacingRight=4;overflow=hidden;points=[[0,0.5],[1,0.5]];portConstraint=eastwest;rotatable=0;whiteSpace=wrap;html=1;" vertex="1" parent="9mr5yLSks6lPNNkDvnGB-1">
          <mxGeometry y="60" width="140" height="30" as="geometry" />
        </mxCell>
        <mxCell id="9mr5yLSks6lPNNkDvnGB-5" value="Système d&#39;exploitation" style="swimlane;fontStyle=0;childLayout=stackLayout;horizontal=1;startSize=30;horizontalStack=0;resizeParent=1;resizeParentMax=0;resizeLast=0;collapsible=1;marginBottom=0;whiteSpace=wrap;html=1;" vertex="1" parent="WIyWlLk6GJQsqaUBKTNV-1">
          <mxGeometry x="440" y="1495" width="140" height="70" as="geometry" />
        </mxCell>
        <mxCell id="9mr5yLSks6lPNNkDvnGB-6" value="&lt;div&gt;nom&lt;/div&gt;" style="text;strokeColor=none;fillColor=none;align=left;verticalAlign=middle;spacingLeft=4;spacingRight=4;overflow=hidden;points=[[0,0.5],[1,0.5]];portConstraint=eastwest;rotatable=0;whiteSpace=wrap;html=1;fontStyle=5" vertex="1" parent="9mr5yLSks6lPNNkDvnGB-5">
          <mxGeometry y="30" width="140" height="40" as="geometry" />
        </mxCell>
        <mxCell id="9mr5yLSks6lPNNkDvnGB-19" style="edgeStyle=orthogonalEdgeStyle;rounded=0;orthogonalLoop=1;jettySize=auto;html=1;entryX=0.5;entryY=0;entryDx=0;entryDy=0;exitX=1;exitY=0.5;exitDx=0;exitDy=0;" edge="1" parent="WIyWlLk6GJQsqaUBKTNV-1" source="9mr5yLSks6lPNNkDvnGB-8" target="9mr5yLSks6lPNNkDvnGB-11">
          <mxGeometry relative="1" as="geometry">
            <mxPoint x="695" y="1385" as="sourcePoint" />
          </mxGeometry>
        </mxCell>
        <mxCell id="9mr5yLSks6lPNNkDvnGB-28" style="edgeStyle=orthogonalEdgeStyle;rounded=0;orthogonalLoop=1;jettySize=auto;html=1;entryX=0.5;entryY=0;entryDx=0;entryDy=0;" edge="1" parent="WIyWlLk6GJQsqaUBKTNV-1" source="9mr5yLSks6lPNNkDvnGB-7" target="9mr5yLSks6lPNNkDvnGB-5">
          <mxGeometry relative="1" as="geometry" />
        </mxCell>
        <mxCell id="9mr5yLSks6lPNNkDvnGB-7" value="Poste de travail" style="swimlane;fontStyle=0;childLayout=stackLayout;horizontal=1;startSize=30;horizontalStack=0;resizeParent=1;resizeParentMax=0;resizeLast=0;collapsible=1;marginBottom=0;whiteSpace=wrap;html=1;" vertex="1" parent="WIyWlLk6GJQsqaUBKTNV-1">
          <mxGeometry x="440" y="1280" width="140" height="90" as="geometry" />
        </mxCell>
        <mxCell id="9mr5yLSks6lPNNkDvnGB-8" value="&lt;b&gt;&lt;u&gt;adresse ip privée&lt;/u&gt;&lt;/b&gt;" style="text;strokeColor=none;fillColor=none;align=left;verticalAlign=middle;spacingLeft=4;spacingRight=4;overflow=hidden;points=[[0,0.5],[1,0.5]];portConstraint=eastwest;rotatable=0;whiteSpace=wrap;html=1;" vertex="1" parent="9mr5yLSks6lPNNkDvnGB-7">
          <mxGeometry y="30" width="140" height="30" as="geometry" />
        </mxCell>
        <mxCell id="9mr5yLSks6lPNNkDvnGB-42" value="Nom" style="text;strokeColor=none;fillColor=none;align=left;verticalAlign=middle;spacingLeft=4;spacingRight=4;overflow=hidden;points=[[0,0.5],[1,0.5]];portConstraint=eastwest;rotatable=0;whiteSpace=wrap;html=1;" vertex="1" parent="9mr5yLSks6lPNNkDvnGB-7">
          <mxGeometry y="60" width="140" height="30" as="geometry" />
        </mxCell>
        <mxCell id="9mr5yLSks6lPNNkDvnGB-11" value="Logiciel" style="swimlane;fontStyle=0;childLayout=stackLayout;horizontal=1;startSize=30;horizontalStack=0;resizeParent=1;resizeParentMax=0;resizeLast=0;collapsible=1;marginBottom=0;whiteSpace=wrap;html=1;" vertex="1" parent="WIyWlLk6GJQsqaUBKTNV-1">
          <mxGeometry x="625" y="1445" width="140" height="90" as="geometry" />
        </mxCell>
        <mxCell id="9mr5yLSks6lPNNkDvnGB-12" value="&lt;b&gt;&lt;u&gt;nom&lt;/u&gt;&lt;/b&gt;" style="text;strokeColor=none;fillColor=none;align=left;verticalAlign=middle;spacingLeft=4;spacingRight=4;overflow=hidden;points=[[0,0.5],[1,0.5]];portConstraint=eastwest;rotatable=0;whiteSpace=wrap;html=1;" vertex="1" parent="9mr5yLSks6lPNNkDvnGB-11">
          <mxGeometry y="30" width="140" height="30" as="geometry" />
        </mxCell>
        <mxCell id="9mr5yLSks6lPNNkDvnGB-13" value="&lt;b&gt;&lt;u&gt;version&lt;/u&gt;&lt;/b&gt;" style="text;strokeColor=none;fillColor=none;align=left;verticalAlign=middle;spacingLeft=4;spacingRight=4;overflow=hidden;points=[[0,0.5],[1,0.5]];portConstraint=eastwest;rotatable=0;whiteSpace=wrap;html=1;" vertex="1" parent="9mr5yLSks6lPNNkDvnGB-11">
          <mxGeometry y="60" width="140" height="30" as="geometry" />
        </mxCell>
        <mxCell id="9mr5yLSks6lPNNkDvnGB-15" value="Salle" style="swimlane;fontStyle=0;childLayout=stackLayout;horizontal=1;startSize=30;horizontalStack=0;resizeParent=1;resizeParentMax=0;resizeLast=0;collapsible=1;marginBottom=0;whiteSpace=wrap;html=1;" vertex="1" parent="WIyWlLk6GJQsqaUBKTNV-1">
          <mxGeometry x="240" y="1555" width="140" height="120" as="geometry" />
        </mxCell>
        <mxCell id="9mr5yLSks6lPNNkDvnGB-16" value="&lt;b&gt;&lt;u&gt;numéro&lt;/u&gt;&lt;/b&gt;" style="text;strokeColor=none;fillColor=none;align=left;verticalAlign=middle;spacingLeft=4;spacingRight=4;overflow=hidden;points=[[0,0.5],[1,0.5]];portConstraint=eastwest;rotatable=0;whiteSpace=wrap;html=1;" vertex="1" parent="9mr5yLSks6lPNNkDvnGB-15">
          <mxGeometry y="30" width="140" height="30" as="geometry" />
        </mxCell>
        <mxCell id="9mr5yLSks6lPNNkDvnGB-17" value="&lt;b&gt;&lt;u&gt;adresse&lt;/u&gt;&lt;/b&gt;" style="text;strokeColor=none;fillColor=none;align=left;verticalAlign=middle;spacingLeft=4;spacingRight=4;overflow=hidden;points=[[0,0.5],[1,0.5]];portConstraint=eastwest;rotatable=0;whiteSpace=wrap;html=1;" vertex="1" parent="9mr5yLSks6lPNNkDvnGB-15">
          <mxGeometry y="60" width="140" height="30" as="geometry" />
        </mxCell>
        <mxCell id="9mr5yLSks6lPNNkDvnGB-18" value="coordonnées" style="text;strokeColor=none;fillColor=none;align=left;verticalAlign=middle;spacingLeft=4;spacingRight=4;overflow=hidden;points=[[0,0.5],[1,0.5]];portConstraint=eastwest;rotatable=0;whiteSpace=wrap;html=1;" vertex="1" parent="9mr5yLSks6lPNNkDvnGB-15">
          <mxGeometry y="90" width="140" height="30" as="geometry" />
        </mxCell>
        <mxCell id="9mr5yLSks6lPNNkDvnGB-22" value="1:N" style="text;html=1;align=center;verticalAlign=middle;whiteSpace=wrap;rounded=0;" vertex="1" parent="WIyWlLk6GJQsqaUBKTNV-1">
          <mxGeometry x="565" y="1325" width="60" height="30" as="geometry" />
        </mxCell>
        <mxCell id="9mr5yLSks6lPNNkDvnGB-23" value="1:N" style="text;html=1;align=center;verticalAlign=middle;whiteSpace=wrap;rounded=0;" vertex="1" parent="WIyWlLk6GJQsqaUBKTNV-1">
          <mxGeometry x="680" y="1415" width="60" height="30" as="geometry" />
        </mxCell>
        <mxCell id="9mr5yLSks6lPNNkDvnGB-24" style="edgeStyle=orthogonalEdgeStyle;rounded=0;orthogonalLoop=1;jettySize=auto;html=1;entryX=-0.007;entryY=0.067;entryDx=0;entryDy=0;entryPerimeter=0;exitX=0;exitY=0.5;exitDx=0;exitDy=0;" edge="1" parent="WIyWlLk6GJQsqaUBKTNV-1" source="9mr5yLSks6lPNNkDvnGB-2" target="9mr5yLSks6lPNNkDvnGB-17">
          <mxGeometry relative="1" as="geometry">
            <mxPoint x="120" y="1358" as="sourcePoint" />
            <mxPoint x="293.98" y="1605" as="targetPoint" />
          </mxGeometry>
        </mxCell>
        <mxCell id="9mr5yLSks6lPNNkDvnGB-29" value="Contenir" style="rounded=1;whiteSpace=wrap;html=1;" vertex="1" parent="WIyWlLk6GJQsqaUBKTNV-1">
          <mxGeometry x="70" y="1465" width="90" height="30" as="geometry" />
        </mxCell>
        <mxCell id="9mr5yLSks6lPNNkDvnGB-27" style="edgeStyle=orthogonalEdgeStyle;rounded=0;orthogonalLoop=1;jettySize=auto;html=1;entryX=0;entryY=0.5;entryDx=0;entryDy=0;" edge="1" parent="WIyWlLk6GJQsqaUBKTNV-1" source="9mr5yLSks6lPNNkDvnGB-15" target="9mr5yLSks6lPNNkDvnGB-8">
          <mxGeometry relative="1" as="geometry">
            <mxPoint x="300" y="1295" as="targetPoint" />
          </mxGeometry>
        </mxCell>
        <mxCell id="9mr5yLSks6lPNNkDvnGB-30" value="Contenir" style="rounded=1;whiteSpace=wrap;html=1;" vertex="1" parent="WIyWlLk6GJQsqaUBKTNV-1">
          <mxGeometry x="265" y="1445" width="90" height="30" as="geometry" />
        </mxCell>
        <mxCell id="9mr5yLSks6lPNNkDvnGB-31" value="Héberger" style="rounded=1;whiteSpace=wrap;html=1;" vertex="1" parent="WIyWlLk6GJQsqaUBKTNV-1">
          <mxGeometry x="465" y="1425" width="90" height="30" as="geometry" />
        </mxCell>
        <mxCell id="9mr5yLSks6lPNNkDvnGB-32" value="Héberger" style="rounded=1;whiteSpace=wrap;html=1;" vertex="1" parent="WIyWlLk6GJQsqaUBKTNV-1">
          <mxGeometry x="650" y="1375" width="90" height="30" as="geometry" />
        </mxCell>
        <mxCell id="9mr5yLSks6lPNNkDvnGB-34" value="1:N" style="text;html=1;align=center;verticalAlign=middle;whiteSpace=wrap;rounded=0;" vertex="1" parent="WIyWlLk6GJQsqaUBKTNV-1">
          <mxGeometry x="50" y="1340" width="60" height="30" as="geometry" />
        </mxCell>
        <mxCell id="9mr5yLSks6lPNNkDvnGB-35" value="1:1" style="text;html=1;align=center;verticalAlign=middle;whiteSpace=wrap;rounded=0;" vertex="1" parent="WIyWlLk6GJQsqaUBKTNV-1">
          <mxGeometry x="190" y="1585" width="60" height="30" as="geometry" />
        </mxCell>
        <mxCell id="9mr5yLSks6lPNNkDvnGB-36" value="1:N" style="text;html=1;align=center;verticalAlign=middle;whiteSpace=wrap;rounded=0;" vertex="1" parent="WIyWlLk6GJQsqaUBKTNV-1">
          <mxGeometry x="295" y="1525" width="60" height="30" as="geometry" />
        </mxCell>
        <mxCell id="9mr5yLSks6lPNNkDvnGB-37" value="1:1" style="text;html=1;align=center;verticalAlign=middle;whiteSpace=wrap;rounded=0;" vertex="1" parent="WIyWlLk6GJQsqaUBKTNV-1">
          <mxGeometry x="495" y="1375" width="60" height="30" as="geometry" />
        </mxCell>
        <mxCell id="9mr5yLSks6lPNNkDvnGB-38" value="1:N" style="text;html=1;align=center;verticalAlign=middle;whiteSpace=wrap;rounded=0;" vertex="1" parent="WIyWlLk6GJQsqaUBKTNV-1">
          <mxGeometry x="495" y="1465" width="60" height="30" as="geometry" />
        </mxCell>
        <mxCell id="9mr5yLSks6lPNNkDvnGB-39" value="1:1" style="text;html=1;align=center;verticalAlign=middle;whiteSpace=wrap;rounded=0;" vertex="1" parent="WIyWlLk6GJQsqaUBKTNV-1">
          <mxGeometry x="390" y="1325" width="60" height="30" as="geometry" />
        </mxCell>
        <mxCell id="9mr5yLSks6lPNNkDvnGB-41" value="&lt;font style=&quot;font-size: 18px;&quot;&gt;Modelisation E/A Réseau&lt;/font&gt;" style="text;html=1;align=center;verticalAlign=middle;whiteSpace=wrap;rounded=0;" vertex="1" parent="WIyWlLk6GJQsqaUBKTNV-1">
          <mxGeometry x="344" y="1200" width="140" height="30" as="geometry" />
        </mxCell>
      </root>
    </mxGraphModel>
  </diagram>
</mxfile>
